<?xml version="1.0" standalone="no"?>
<!DOCTYPE svg PUBLIC "-//W3C//DTD SVG 20010904//EN"
 "http://www.w3.org/TR/2001/REC-SVG-20010904/DTD/svg10.dtd">
<svg version="1.0" xmlns="http://www.w3.org/2000/svg"
 width="624.000000pt" height="267.000000pt" viewBox="0 0 624.000000 267.000000"
 preserveAspectRatio="xMidYMid meet">

<g transform="translate(0.000000,267.000000) scale(0.100000,-0.100000)"
fill="#000000" stroke="none">
<path d="M2739 2633 c-6 -16 -22 -59 -35 -97 -41 -120 -69 -144 -224 -201 -47
-17 -85 -35 -85 -40 0 -6 45 -27 100 -47 55 -21 111 -46 125 -56 27 -19 79
-116 108 -201 10 -30 23 -56 29 -58 6 -2 21 27 33 64 35 106 69 171 100 193
16 12 75 38 130 58 56 21 101 42 101 47 -1 6 -36 22 -79 36 -104 35 -132 51
-174 97 -34 37 -60 93 -88 190 -15 49 -26 53 -41 15z"/>
<path d="M1980 2196 c-248 -72 -380 -130 -495 -217 -54 -41 -59 -49 -55 -79 8
-62 222 -153 321 -138 21 3 19 6 -19 26 -24 13 -46 30 -49 38 -4 11 -14 14
-32 10 -21 -5 -20 -3 10 13 86 47 257 89 454 111 153 17 245 32 251 42 11 17
-8 47 -41 67 -20 11 -53 49 -79 89 -63 99 -60 99 -266 38z"/>
<path d="M3323 2233 c-7 -2 -28 -30 -47 -62 -19 -31 -58 -77 -85 -103 -28 -25
-51 -50 -51 -56 0 -18 53 -28 320 -63 91 -11 201 -32 246 -45 82 -23 212 -78
162 -68 -20 5 -30 2 -34 -11 -4 -9 -24 -23 -45 -32 -59 -23 -49 -37 21 -29
119 14 228 63 266 121 22 33 15 47 -52 98 -108 82 -280 156 -523 223 -120 33
-152 38 -178 27z"/>
<path d="M5938 2045 c-153 -34 -285 -66 -295 -70 -14 -5 -6 -12 37 -33 89 -43
91 -52 88 -347 l-3 -248 -305 256 c-252 213 -310 257 -335 257 -62 -1 -259
-36 -262 -47 -3 -7 14 -17 38 -23 22 -6 52 -22 65 -35 l24 -24 0 -392 c0 -444
3 -427 -82 -480 -27 -16 -48 -31 -48 -34 0 -3 135 -5 300 -5 166 0 300 4 300
9 0 5 -13 14 -29 20 -15 7 -44 28 -62 47 l-34 35 -3 306 c-3 294 -2 306 15
292 10 -9 90 -76 178 -149 230 -192 245 -207 245 -250 0 -149 108 -325 243
-395 94 -50 87 -99 87 590 0 488 3 612 14 638 7 18 38 55 68 84 48 45 61 66
39 62 -3 -1 -131 -29 -283 -64z"/>
<path d="M109 2044 c-11 -14 -10 -19 14 -36 15 -11 40 -41 55 -66 l27 -47 0
-490 c0 -438 -2 -496 -17 -546 -24 -78 -74 -148 -130 -184 -26 -16 -46 -34
-44 -40 4 -16 55 -18 121 -5 128 25 241 115 288 230 22 55 22 58 22 625 l0
570 -161 3 c-139 2 -163 0 -175 -14z"/>
<path d="M2663 1859 c-107 -21 -185 -76 -231 -164 -22 -41 -27 -64 -27 -125 0
-65 4 -84 32 -141 18 -35 44 -76 58 -89 15 -14 108 -82 208 -151 207 -143 231
-169 224 -242 -8 -94 -70 -141 -177 -134 -126 8 -223 77 -313 224 -27 46 -54
83 -59 83 -20 0 -11 -197 12 -273 26 -83 41 -97 90 -84 32 9 56 7 135 -12 78
-20 113 -23 195 -19 86 4 108 9 165 37 81 40 126 95 150 185 37 137 3 280 -88
363 -23 21 -116 90 -207 152 -194 133 -217 153 -231 201 -9 30 -8 43 5 68 26
50 57 65 135 65 85 0 140 -28 188 -93 17 -25 43 -59 57 -75 26 -33 123 -91
134 -81 10 10 -36 136 -77 213 -37 67 -38 68 -82 71 -24 1 -84 9 -133 17 -98
16 -102 17 -163 4z"/>
<path d="M590 1737 c0 -2 17 -22 39 -44 53 -56 61 -99 61 -313 l0 -180 53 42
c28 24 75 56 102 72 28 16 52 31 55 33 3 3 7 59 10 126 l5 122 120 2 c109 3
124 1 160 -20 22 -12 54 -43 70 -68 60 -92 56 -90 52 -19 -3 36 -12 93 -22
128 l-18 62 -91 0 c-164 1 -389 19 -490 40 -106 22 -106 22 -106 17z"/>
<path d="M1418 1642 l42 -39 0 -355 c0 -389 5 -357 -60 -408 l-25 -19 193 -1
c105 0 192 4 192 8 0 4 -13 16 -30 25 -46 28 -51 64 -48 330 l3 238 220 -282
c246 -316 295 -373 336 -394 25 -14 69 -20 69 -11 0 2 -12 30 -27 62 l-28 59
-3 360 c-2 235 1 370 7 388 6 15 24 36 41 45 16 9 30 20 30 25 0 4 -85 7 -190
7 -117 0 -190 -4 -190 -10 0 -5 13 -16 29 -24 47 -25 52 -51 49 -281 l-3 -210
-192 246 c-106 136 -199 254 -208 263 -13 13 -39 16 -132 16 l-116 0 41 -38z"/>
<path d="M3210 1641 l45 -39 0 -363 0 -364 -27 -45 c-14 -25 -38 -56 -52 -69
-14 -14 -26 -28 -26 -33 0 -14 65 1 169 39 51 18 127 39 169 45 l76 11 -25 18
c-60 46 -59 43 -59 179 0 85 4 130 12 138 8 8 57 12 154 12 116 0 145 -3 158
-16 13 -12 16 -40 16 -136 l0 -121 -42 -39 -41 -38 193 0 193 0 -41 38 -42 39
0 342 c0 370 2 382 54 411 14 7 26 17 26 22 0 4 -85 8 -190 8 -117 0 -190 -4
-190 -10 0 -5 13 -16 30 -25 16 -8 34 -24 40 -34 15 -28 13 -264 -2 -279 -8
-8 -58 -12 -159 -12 -124 0 -149 3 -160 17 -10 12 -14 49 -14 141 l1 125 44
39 45 38 -200 0 -200 0 45 -39z"/>
<path d="M4265 1670 c-3 -5 13 -14 35 -21 22 -7 52 -23 65 -37 l25 -25 0 -336
c0 -380 3 -367 -77 -397 -27 -9 -52 -21 -57 -26 -6 -4 106 -8 248 -8 257 0
292 5 205 32 -80 24 -79 16 -79 400 l0 339 24 24 c13 13 42 29 65 35 22 6 41
15 41 20 0 13 -487 13 -495 0z"/>
<path d="M1070 1360 c-159 -33 -326 -121 -410 -216 -37 -43 -110 -152 -110
-166 0 -5 29 7 63 27 35 19 67 35 72 35 12 0 -2 -96 -21 -132 -9 -18 -37 -54
-62 -80 -52 -53 -51 -54 63 -32 53 10 175 17 366 21 l286 6 18 56 c10 31 20
90 22 131 4 82 6 82 -49 -6 -15 -23 -46 -56 -69 -71 -41 -27 -46 -28 -183 -28
l-141 0 -3 112 c-2 100 -1 112 15 117 46 13 153 27 274 36 72 5 134 12 137 15
9 8 -20 36 -59 56 -46 23 -63 51 -55 90 3 15 2 30 -2 32 -23 14 -77 13 -152
-3z"/>
<path d="M4238 1373 c-13 -3 -18 -15 -18 -44 0 -43 -15 -62 -79 -102 -68 -43
-64 -45 157 -62 l72 -5 0 105 0 105 -44 0 c-24 0 -50 2 -58 4 -7 2 -21 2 -30
-1z"/>
<path d="M4641 1193 c2 -94 3 -95 132 -161 64 -32 117 -57 117 -54 0 10 -64
109 -97 149 -32 39 -132 123 -146 123 -4 0 -7 -26 -6 -57z"/>
<path d="M905 563 c43 -11 45 -18 45 -193 0 -175 -2 -182 -45 -193 -11 -2 41
-5 115 -4 74 0 124 2 110 4 -45 8 -50 26 -50 193 0 167 5 185 50 193 14 2 -36
4 -110 4 -74 1 -126 -2 -115 -4z"/>
<path d="M1479 560 c18 -4 37 -14 42 -22 11 -17 11 -319 0 -336 -5 -8 -24 -18
-42 -22 -25 -6 -12 -8 51 -8 47 1 74 3 60 5 -48 9 -50 16 -50 177 l1 151 67
-165 c53 -129 72 -165 87 -165 14 0 30 33 78 173 33 95 60 171 61 170 1 -2 -1
-77 -4 -168 l-5 -164 -25 -7 c-14 -4 31 -7 100 -7 69 0 116 2 105 5 -40 9 -45
30 -45 193 0 167 5 185 50 193 14 2 -21 5 -76 6 l-102 1 -38 -110 c-20 -61
-40 -113 -43 -115 -4 -2 -26 48 -50 111 l-43 114 -107 -1 c-76 -1 -96 -3 -72
-9z"/>
<path d="M2350 563 c49 -9 50 -15 50 -193 0 -178 -1 -184 -50 -193 -14 -2 38
-4 115 -4 77 0 129 2 115 4 -39 7 -50 30 -50 104 l0 66 83 5 c46 3 93 11 104
19 46 28 57 108 23 152 -31 39 -78 47 -255 46 -88 -1 -149 -4 -135 -6z m254
-18 c32 -33 32 -137 0 -170 -9 -8 -29 -15 -45 -15 l-29 0 0 100 0 100 29 0
c16 0 36 -7 45 -15z"/>
<path d="M3080 563 c49 -9 50 -15 50 -193 0 -175 -2 -182 -45 -193 -11 -2 78
-5 198 -6 l217 -1 0 85 c0 47 -2 85 -4 85 -2 0 -18 -24 -34 -53 -46 -81 -82
-107 -148 -107 l-54 0 0 95 c0 93 0 95 23 95 30 0 57 -29 67 -72 5 -22 8 3 8
77 0 74 -3 99 -8 77 -10 -43 -37 -72 -67 -72 -22 0 -23 2 -23 90 l0 90 41 0
c56 0 98 -28 145 -95 20 -30 39 -55 41 -55 1 0 3 36 3 80 l0 80 -217 -1 c-120
-1 -207 -4 -193 -6z"/>
<path d="M3858 559 l32 -10 0 -179 0 -179 -32 -10 c-25 -7 -3 -9 92 -10 107
-1 121 1 100 12 -23 12 -25 18 -25 86 0 41 5 76 10 78 15 4 110 -146 99 -157
-5 -4 -18 -10 -29 -13 -11 -3 43 -5 120 -5 77 0 129 3 115 7 -18 4 -51 45
-118 145 l-93 140 43 43 c24 24 56 48 73 52 24 7 14 9 -45 9 -44 0 -65 -3 -51
-7 14 -4 26 -11 28 -16 2 -6 -32 -51 -74 -100 l-78 -90 -3 89 c-3 93 3 112 41
119 12 2 -36 4 -108 5 -97 0 -122 -2 -97 -9z"/>
<path d="M4630 480 c0 -49 2 -90 4 -90 2 0 25 30 51 66 56 77 94 104 152 104
l43 0 -135 -190 c-74 -104 -135 -192 -135 -195 0 -3 95 -5 210 -5 l210 0 0 95
c0 52 -2 95 -4 95 -2 0 -18 -22 -36 -49 -17 -27 -51 -68 -75 -90 -40 -37 -50
-41 -95 -41 l-51 0 23 33 c12 17 73 103 135 190 62 86 113 160 113 162 0 3
-92 5 -205 5 l-205 0 0 -90z"/>
</g>
</svg>
